<svg data-v-0dd9719b="" version="1.0" xmlns="http://www.w3.org/2000/svg" xmlns:xlink="http://www.w3.org/1999/xlink" width="100%" height="100%" viewBox="0 0 340.000000 250.000000" preserveAspectRatio="xMidYMid meet" color-interpolation-filters="sRGB" style="margin: auto;"> <rect data-v-0dd9719b="" x="0" y="0" width="100%" height="100%" fill="#fff" fill-opacity="1" class="background"></rect> <rect data-v-0dd9719b="" x="0" y="0" width="100%" height="100%" fill="url(#watermark)" fill-opacity="1" class="watermarklayer"></rect> <g data-v-0dd9719b="" fill="#333" class="icon-text-wrapper icon-svg-group iconsvg" transform="translate(48.75,87.9400863647461)"><g class="iconsvg-imagesvg" transform="translate(0,0)"><g><rect fill="#333" fill-opacity="0" stroke-width="2" x="0" y="0" width="60" height="74.11982705373687" class="image-rect"></rect> <svg x="0" y="0" width="60" height="74.11982705373687" filtersec="colorsb5011059481" class="image-svg-svg primary" style="overflow: visible;"><svg xmlns="http://www.w3.org/2000/svg" viewBox="0 0 80.94999694824219 100"><title>资源 154</title><path fill="#333" d="M0 57.14L61.91 100l19.04-9.52V4.76L76.19 0v80.95L30.95 48.81l25-13.1v29.24l2.38 1.72v-38.1L0 57.14z"></path><path fill="#4545c4" d="M0 54.76V38.09l73.81-36.9v76.19l-13.1-9.52V23.81L0 54.76z"></path></svg></svg> <!----></g></g> <g transform="translate(67,8.608665466308594)"><g data-gra="path-name" fill-rule="" class="tp-name iconsvg-namesvg" transform="translate(0,0)"><g transform="scale(1)"><g><path d="M39.64 3.96L39.64 3.96 26.41 3.96 26.41 0.99 38.16 0.99 38.16-2.25 6.75-2.25 6.75 3.92 3.78 3.92 3.78-16.56Q3.78-17.19 4.21-17.62 4.63-18.04 5.26-18.04L5.26-18.04 39.64-18.04Q40.27-18.04 40.7-17.62 41.13-17.19 41.13-16.56L41.13-16.56 41.13 2.48Q41.13 3.1 40.7 3.53 40.27 3.96 39.64 3.96L39.64 3.96ZM42.07-34.29L42.07-31.32 23.94-31.32 23.94-28.75 41.09-28.75 41.09-25.79 23.94-25.79 23.94-23.22 42.66-23.22 42.66-20.25 2.25-20.25 2.25-23.22 20.97-23.22 20.97-25.79 3.82-25.79 3.82-28.75 20.97-28.75 20.97-31.32 2.79-31.32 2.79-34.29 20.97-34.29 20.97-36.27 23.94-36.27 23.94-34.29 42.07-34.29ZM38.16-11.56L38.16-15.07 6.75-15.07 6.75-11.56 38.16-11.56ZM6.75-8.64L6.75-5.17 38.16-5.17 38.16-8.64 6.75-8.64ZM86.17 3.82L86.17 3.82 65.79 3.82 65.79 0.85 84.69 0.85 84.69-15.62 51.57-15.62Q50.94-15.62 50.51-16.04 50.09-16.47 50.09-17.1L50.09-17.1 50.09-32.4Q50.09-33.03 50.51-33.44 50.94-33.84 51.57-33.84L51.57-33.84 64.94-33.84 66.78-37.03 69.34-35.55 68.31-33.84 85.37-33.84Q86-33.84 86.42-33.44 86.85-33.03 86.85-32.4L86.85-32.4 86.85-22.41Q86.85-21.78 86.42-21.35 86-20.93 85.37-20.93L85.37-20.93 73.31-20.93 73.31-23.85 83.88-23.85 83.88-30.91 53.05-30.91 53.05-18.59 86.17-18.59Q86.81-18.59 87.23-18.16 87.66-17.73 87.66-17.1L87.66-17.1 87.66 2.34Q87.66 2.97 87.23 3.4 86.81 3.82 86.17 3.82L86.17 3.82ZM77.53-1.93L77.53-1.93 49.19-1.93Q48.55-1.93 48.13-2.36 47.7-2.79 47.7-3.42L47.7-3.42 47.7-13.05 50.67-13.05 50.67-4.91 61.88-4.91 61.88-13.41 64.84-13.41 64.84-4.91 76.05-4.91 76.05-13.05 79.02-13.05 79.02-3.42Q79.02-2.79 78.59-2.36 78.16-1.93 77.53-1.93L77.53-1.93ZM69.84-20.97L67.09-19.84 63.27-29.16 66.02-30.29 69.84-20.97ZM109.22 2.79L109.22 2.79 107.69-11.74 110.61-12.06 112.05 1.57 113.81-4.09 113.81-34.24Q113.81-34.83 114.19-35.26 114.57-35.68 115.2-35.73L115.2-35.73 132.21-36.72 132.39-33.75 116.73-32.85 116.73-25.83 132.3-25.83 132.3-22.86 127.62-22.86 127.62 3.96 124.65 3.96 124.65-22.86 116.73-22.86 116.73-3.87Q116.73-3.55 116.69-3.42L116.69-3.42 114.25 4.5 111.42 3.65 111.73 2.52 109.22 2.79ZM102.47 3.96L102.47 3.96 97.65 3.96 97.65 0.99 100.98 0.99 100.98-13.09 92.66-13.09 92.66-16.02 100.98-16.02 100.98-20.25 92.34-20.25 92.34-23.22 105.57-23.22 107.01-30.38 109.89-29.79 108.59-23.22 112.5-23.22 112.5-20.25 103.95-20.25 103.95-16.02 112.23-16.02 112.23-13.09 103.95-13.09 103.95 2.48Q103.95 3.1 103.52 3.53 103.09 3.96 102.47 3.96L102.47 3.96ZM111.73-33.88L111.73-30.96 93.11-30.96 93.11-33.88 100.94-33.88 100.48-36.05 103.36-36.67 103.95-33.88 111.73-33.88ZM99.05-24.07L96.17-23.54 94.95-29.79 97.83-30.38 99.05-24.07ZM97.25-11.74L95.63 3.1 92.7 2.79 94.32-12.06 97.25-11.74ZM177.75 3.69L177.75 3.69 137.38 3.69 137.38 0.72 139.37 0.72 139.37-10.98Q139.37-11.61 139.77-12.04 140.18-12.46 140.81-12.46L140.81-12.46 174.33-12.46Q174.96-12.46 175.37-12.04 175.77-11.61 175.77-10.98L175.77-10.98 175.77 0.72 177.75 0.72 177.75 3.69ZM174.56-13.68L174.56-13.68 168.16-20.88 159.34-13.72 157.5-16.02 166.23-23.09 159.25-30.96 142.25-30.96 142.25-28.17 154.89-28.17Q155.52-28.17 155.93-27.74 156.33-27.31 156.33-26.68L156.33-26.68 156.33-15.88Q156.33-15.25 155.93-14.83 155.52-14.4 154.89-14.4L154.89-14.4 146.25-14.4 146.25-17.37 153.41-17.37 153.41-25.2 142.25-25.2 142.25-19.71Q142.25-19.39 142.11-19.08L142.11-19.08 139.77-14.04 137.12-15.25 139.32-20.02 139.32-32.45Q139.32-33.07 139.75-33.5 140.18-33.93 140.81-33.93L140.81-33.93 156.65-33.93 155.66-35.05 157.86-36.99 160.56-33.93 167.53-33.93 166.72-35.59 169.34-36.95 170.87-33.93 176.09-33.93 176.09-30.96 163.22-30.96 168.53-24.97 174.47-29.79 176.31-27.49 170.46-22.77 176.81-15.62 174.56-13.68ZM142.29-9.49L142.29 0.72 150.48 0.72 150.48-9.49 142.29-9.49ZM153.45-9.49L153.45 0.72 161.78 0.72 161.78-9.49 153.45-9.49ZM172.84 0.72L172.84-9.49 164.7-9.49 164.7 0.72 172.84 0.72Z" transform="translate(-2.25, 37.029998779296875)"></path></g> <!----> <!----> <!----> <!----> <!----> <!----> <!----></g></g> <g data-gra="path-slogan" fill-rule="" class="tp-slogan iconsvg-slogansvg" fill="#333" transform="translate(27.279998779296875,47.529998779296875)"><!----> <!----> <g transform="scale(1, 1)"><g transform="scale(1)"><path d="M5.91-1.08L5.02-1.78L5.63-2.48L6.70-1.64Q7.69-2.63 7.69-4.27L7.69-4.27Q7.50-7.64 4.69-7.83L4.69-7.83Q1.83-7.69 1.69-4.27L1.69-4.27Q1.83-0.94 4.69-0.80L4.69-0.80Q5.39-0.80 5.91-1.08L5.91-1.08ZM7.64-0.94L8.77-0.05L8.20 0.56L6.89-0.33Q6.05 0.14 4.69 0.14L4.69 0.14Q0.75 0 0.47-4.27L0.47-4.27Q0.70-8.72 4.69-8.81L4.69-8.81Q8.58-8.67 8.86-4.27L8.86-4.27Q8.81-2.20 7.64-0.94L7.64-0.94ZM10.41-8.58L11.58-8.58L11.58 0L10.41 0L10.41-8.58ZM14.95-8.58L19.27-1.64L19.27-8.58L20.39-8.58L20.39 0L19.08 0L14.72-6.94L14.67-6.94L14.67 0L13.55 0L13.55-8.58L14.95-8.58ZM28.59-3.61L25.97-3.61L25.97-4.59L29.72-4.59L29.72 0L28.97 0L28.69-1.08Q27.70 0.09 25.88 0.14L25.88 0.14Q24.14 0.14 23.20-0.75L23.20-0.75Q21.80-2.06 21.84-4.36L21.84-4.36Q22.17-8.63 25.92-8.81L25.92-8.81Q29.11-8.63 29.58-6L29.58-6L28.45-6Q27.98-7.78 25.88-7.83L25.88-7.83Q23.20-7.64 23.06-4.31L23.06-4.31Q23.06-0.75 25.92-0.75L25.92-0.75Q26.95-0.75 27.70-1.31L27.70-1.31Q28.64-2.06 28.59-3.61L28.59-3.61ZM35.02 0L31.55 0L31.55-8.58L35.06-8.58Q38.53-8.39 38.67-4.41L38.67-4.41Q38.48-0.09 35.02 0L35.02 0ZM34.88-7.64L32.72-7.64L32.72-0.98L34.97-0.98Q37.41-1.13 37.50-4.31L37.50-4.31Q37.45-7.55 34.88-7.64L34.88-7.64ZM45.80 0L44.95-2.48L41.48-2.48L40.59 0L39.42 0L42.66-8.58L43.97-8.58L47.06 0L45.80 0ZM43.22-7.31L41.86-3.52L44.53-3.52L43.27-7.31L43.22-7.31ZM54.89-4.27L54.89-4.27Q54.70-7.64 51.89-7.83L51.89-7.83Q49.03-7.69 48.89-4.27L48.89-4.27Q49.03-0.94 51.89-0.80L51.89-0.80Q54.70-0.98 54.89-4.27ZM56.06-4.27L56.06-4.27Q55.78 0 51.89 0.14L51.89 0.14Q47.95 0 47.67-4.27L47.67-4.27Q47.91-8.72 51.89-8.81L51.89-8.81Q55.78-8.67 56.06-4.27ZM67.50-8.58L64.59-4.41L67.64 0L66.19 0L63.84-3.52L61.50 0L60.09 0L63.19-4.41L60.28-8.58L61.73-8.58L63.89-5.30L66.09-8.58L67.50-8.58ZM68.91-8.58L70.08-8.58L70.08 0L68.91 0L68.91-8.58ZM73.45-8.58L77.77-1.64L77.77-8.58L78.89-8.58L78.89 0L77.58 0L73.22-6.94L73.17-6.94L73.17 0L72.05 0L72.05-8.58L73.45-8.58ZM86.95-6.09L86.95-6.09L85.88-6.09Q85.78-7.73 83.72-7.83L83.72-7.83Q81.80-7.78 81.80-6.33L81.80-6.33Q81.80-5.39 82.83-5.25L82.83-5.25L85.27-4.69Q87.19-4.22 87.19-2.34L87.19-2.34Q87.14 0.05 83.81 0.14L83.81 0.14Q81.98 0.14 81.23-0.61L81.23-0.61Q80.30-1.31 80.34-2.77L80.34-2.77L81.47-2.77Q81.52-0.80 83.81-0.75L83.81-0.75Q86.06-0.80 86.11-2.20L86.11-2.20Q86.30-3.38 84.23-3.75L84.23-3.75L82.45-4.13Q80.63-4.64 80.63-6.19L80.63-6.19Q80.77-8.72 83.63-8.81L83.63-8.81Q86.86-8.81 86.95-6.09ZM89.81-5.06L94.31-5.06L94.31-8.58L95.48-8.58L95.48 0L94.31 0L94.31-3.98L89.81-3.98L89.81 0L88.64 0L88.64-8.58L89.81-8.58L89.81-5.06ZM98.58-1.03L103.73-1.03L103.73 0L97.41 0L97.41-8.58L103.64-8.58L103.64-7.59L98.58-7.59L98.58-4.92L103.27-4.92L103.27-3.89L98.58-3.89L98.58-1.03ZM106.64-8.58L110.95-1.64L110.95-8.58L112.08-8.58L112.08 0L110.77 0L106.41-6.94L106.36-6.94L106.36 0L105.23 0L105.23-8.58L106.64-8.58ZM120.28-3.61L117.66-3.61L117.66-4.59L121.41-4.59L121.41 0L120.66 0L120.38-1.08Q119.39 0.09 117.56 0.14L117.56 0.14Q115.83 0.14 114.89-0.75L114.89-0.75Q113.48-2.06 113.53-4.36L113.53-4.36Q113.86-8.63 117.61-8.81L117.61-8.81Q120.80-8.63 121.27-6L121.27-6L120.14-6Q119.67-7.78 117.56-7.83L117.56-7.83Q114.89-7.64 114.75-4.31L114.75-4.31Q114.75-0.75 117.61-0.75L117.61-0.75Q118.64-0.75 119.39-1.31L119.39-1.31Q120.33-2.06 120.28-3.61L120.28-3.61Z" transform="translate(-0.46875, 8.8125)"></path></g></g></g></g></g><defs v-gra="od"></defs></svg>